<svg width="33" height="32" viewBox="0 0 33 32" fill="none" xmlns="http://www.w3.org/2000/svg">
<path d="M13.318 12.818C14.1619 11.9741 15.3065 11.5 16.5 11.5C17.6935 11.5 18.8381 11.9741 19.682 12.818C20.5259 13.6619 21 14.8065 21 16C21 17.1935 20.5259 18.3381 19.682 19.182C18.8381 20.0259 17.6935 20.5 16.5 20.5C15.3065 20.5 14.1619 20.0259 13.318 19.182C12.4741 18.3381 12 17.1935 12 16C12 14.8065 12.4741 13.6619 13.318 12.818ZM14.0251 13.5251C13.3687 14.1815 13 15.0717 13 16C13 16.9283 13.3687 17.8185 14.0251 18.4749C14.6815 19.1313 15.5717 19.5 16.5 19.5C17.4283 19.5 18.3185 19.1313 18.9749 18.4749C19.6313 17.8185 20 16.9283 20 16C20 15.0717 19.6313 14.1815 18.9749 13.5251C18.3185 12.8687 17.4283 12.5 16.5 12.5C15.5717 12.5 14.6815 12.8687 14.0251 13.5251Z" stroke="#4CA1FE" stroke-linejoin="round"/>
<mask id="path-2-inside-1_4007_1611" fill="white">
<path fill-rule="evenodd" clip-rule="evenodd" d="M16.4667 1.6665C15.8734 1.6665 15.3787 1.6665 14.9734 1.69317C14.559 1.71042 14.1504 1.79602 13.764 1.9465C13.319 2.13062 12.9147 2.4006 12.574 2.74102C12.2334 3.08144 11.9631 3.48563 11.7787 3.9305C11.5854 4.39717 11.5334 4.8905 11.512 5.4265C11.5099 5.62253 11.458 5.8148 11.3612 5.98529C11.2644 6.15577 11.1259 6.29887 10.9587 6.40117C10.7865 6.49517 10.5933 6.54388 10.3972 6.54271C10.201 6.54155 10.0084 6.49055 9.83736 6.3945C9.36269 6.14384 8.90936 5.9425 8.40803 5.87584C7.93062 5.81304 7.44552 5.84489 6.98042 5.96957C6.51532 6.09426 6.07934 6.30933 5.69736 6.6025C5.37439 6.86234 5.09645 7.17362 4.87469 7.52384C4.64803 7.8625 4.40003 8.2905 4.10403 8.80384L4.07069 8.8625C3.77336 9.37584 3.52669 9.80384 3.34803 10.1692C3.16136 10.5505 3.01469 10.9265 2.96136 11.3425C2.83416 12.3065 3.09506 13.2815 3.68669 14.0532C3.99469 14.4545 4.39603 14.7465 4.84936 15.0318C5.01837 15.1318 5.15919 15.273 5.25855 15.4424C5.35792 15.6117 5.41257 15.8036 5.41736 15.9998C5.41257 16.1961 5.35792 16.388 5.25855 16.5573C5.15919 16.7266 5.01837 16.8679 4.84936 16.9678C4.39603 17.2532 3.99603 17.5452 3.68669 17.9465C3.39351 18.3285 3.17844 18.7645 3.05376 19.2296C2.92908 19.6947 2.89723 20.1798 2.96003 20.6572C3.01469 21.0732 3.16003 21.4492 3.34669 21.8305C3.52669 22.1958 3.77336 22.6238 4.07069 23.1372L4.10403 23.1958C4.40003 23.7092 4.64803 24.1372 4.87469 24.4758C5.11069 24.8265 5.36403 25.1425 5.69736 25.3958C6.07924 25.6892 6.51518 25.9046 6.98028 26.0295C7.44538 26.1544 7.93053 26.1864 8.40803 26.1238C8.90936 26.0572 9.36269 25.8572 9.83736 25.6052C10.0082 25.5092 10.2006 25.4583 10.3965 25.4571C10.5924 25.456 10.7854 25.5046 10.9574 25.5985C11.1255 25.7 11.2649 25.8429 11.3622 26.0135C11.4595 26.1841 11.5116 26.3768 11.5134 26.5732C11.5334 27.1092 11.5854 27.6025 11.78 28.0692C11.9641 28.5142 12.2341 28.9185 12.5745 29.2592C12.915 29.5998 13.3191 29.8701 13.764 30.0545C14.1507 30.2145 14.5507 30.2772 14.9734 30.3052C15.3787 30.3332 15.8734 30.3332 16.4667 30.3332H16.5334C17.1267 30.3332 17.6214 30.3332 18.0267 30.3065C18.4507 30.2772 18.8494 30.2145 19.236 30.0532C19.681 29.8691 20.0854 29.5991 20.426 29.2587C20.7667 28.9182 21.0369 28.514 21.2214 28.0692C21.4147 27.6025 21.4667 27.1092 21.488 26.5732C21.4899 26.3769 21.5417 26.1844 21.6385 26.0136C21.7353 25.8429 21.8739 25.6996 22.0414 25.5972C22.2136 25.5034 22.4069 25.4549 22.6031 25.4563C22.7992 25.4577 22.9918 25.5089 23.1627 25.6052C23.6374 25.8558 24.0907 26.0572 24.592 26.1225C25.556 26.2497 26.5311 25.9888 27.3027 25.3972C27.636 25.1412 27.8894 24.8265 28.1254 24.4758C28.352 24.1372 28.6 23.7092 28.896 23.1958L28.9294 23.1372C29.2267 22.6238 29.4734 22.1958 29.652 21.8305C29.8387 21.4492 29.9854 21.0718 30.0387 20.6572C30.1659 19.6932 29.905 18.7181 29.3134 17.9465C29.0054 17.5452 28.604 17.2532 28.1507 16.9678C27.9817 16.8679 27.8409 16.7266 27.7415 16.5573C27.6421 16.388 27.5875 16.1961 27.5827 15.9998C27.5827 15.6292 27.7854 15.2612 28.1507 15.0318C28.604 14.7465 29.004 14.4545 29.3134 14.0532C29.6065 13.6712 29.8216 13.2352 29.9463 12.7701C30.071 12.305 30.1028 11.8199 30.04 11.3425C29.9766 10.9328 29.8459 10.5363 29.6534 10.1692C29.4257 9.72617 29.1843 9.2904 28.9294 8.8625L28.896 8.80384C28.6525 8.36929 28.3954 7.94241 28.1254 7.52384C27.9036 7.174 27.6257 6.86315 27.3027 6.60384C26.9208 6.31043 26.4849 6.09512 26.0198 5.9702C25.5547 5.84529 25.0695 5.81323 24.592 5.87584C24.0907 5.9425 23.6374 6.1425 23.1627 6.3945C22.9918 6.49031 22.7994 6.54118 22.6036 6.54235C22.4077 6.54351 22.2147 6.49494 22.0427 6.40117C21.875 6.29919 21.7359 6.15623 21.6387 5.98573C21.5414 5.81522 21.4891 5.62278 21.4867 5.4265C21.4667 4.8905 21.4147 4.39717 21.22 3.9305C21.0359 3.4855 20.7659 3.08113 20.4255 2.74049C20.0851 2.39984 19.6809 2.12959 19.236 1.94517C18.8494 1.78517 18.4494 1.7225 18.0267 1.6945C17.6214 1.6665 17.1267 1.6665 16.5334 1.6665H16.4667ZM14.5294 3.79317C14.632 3.7505 14.788 3.71184 15.1094 3.68917C15.4387 3.6665 15.8654 3.6665 16.5 3.6665C17.1347 3.6665 17.5614 3.6665 17.8907 3.68917C18.212 3.71184 18.368 3.7505 18.4707 3.79317C18.88 3.9625 19.204 4.2865 19.3734 4.69584C19.4267 4.82384 19.4707 5.02517 19.488 5.50117C19.528 6.55717 20.0734 7.5745 21.0414 8.13317C22.0094 8.69317 23.1627 8.65584 24.0974 8.1625C24.5187 7.93984 24.7147 7.87717 24.8534 7.85984C25.2914 7.80195 25.7346 7.92041 26.0854 8.18917C26.1734 8.25717 26.2854 8.37317 26.4654 8.63984C26.6507 8.9145 26.864 9.28384 27.1814 9.83317C27.4987 10.3825 27.7107 10.7532 27.856 11.0492C27.9987 11.3385 28.0427 11.4932 28.056 11.6038C28.1139 12.0419 27.9955 12.4851 27.7267 12.8358C27.6414 12.9465 27.4894 13.0852 27.0867 13.3385C26.1907 13.9012 25.5827 14.8825 25.5827 15.9998C25.5827 17.1172 26.1907 18.0985 27.0867 18.6612C27.4894 18.9145 27.6414 19.0532 27.7267 19.1638C27.996 19.5145 28.1134 19.9572 28.056 20.3958C28.0427 20.5065 27.9974 20.6625 27.856 20.9505C27.7107 21.2478 27.4987 21.6172 27.1814 22.1665C26.864 22.7158 26.6494 23.0852 26.4654 23.3598C26.2854 23.6265 26.1734 23.7425 26.0854 23.8105C25.7346 24.0793 25.2914 24.1977 24.8534 24.1398C24.7147 24.1225 24.52 24.0598 24.0974 23.8372C23.164 23.3438 22.0094 23.3065 21.0414 23.8652C20.0734 24.4252 19.528 25.4425 19.488 26.4985C19.4707 26.9745 19.4267 27.1758 19.3734 27.3038C19.2896 27.5062 19.1668 27.6901 19.0119 27.845C18.857 27.9999 18.6731 28.1227 18.4707 28.2065C18.368 28.2492 18.212 28.2878 17.8907 28.3105C17.5614 28.3332 17.1347 28.3332 16.5 28.3332C15.8654 28.3332 15.4387 28.3332 15.1094 28.3105C14.788 28.2878 14.632 28.2492 14.5294 28.2065C14.327 28.1227 14.1431 27.9999 13.9882 27.845C13.8333 27.6901 13.7105 27.5062 13.6267 27.3038C13.5734 27.1758 13.5294 26.9745 13.512 26.4985C13.472 25.4425 12.9267 24.4252 11.9587 23.8665C10.9907 23.3065 9.83736 23.3438 8.90269 23.8372C8.48136 24.0598 8.28536 24.1225 8.14669 24.1398C7.70861 24.1977 7.26546 24.0793 6.91469 23.8105C6.82669 23.7425 6.71469 23.6265 6.53469 23.3598C6.28391 22.9695 6.04513 22.5715 5.81869 22.1665C5.50136 21.6172 5.28936 21.2465 5.14403 20.9505C5.00136 20.6612 4.95736 20.5065 4.94403 20.3958C4.88614 19.9577 5.0046 19.5146 5.27336 19.1638C5.35869 19.0532 5.51069 18.9145 5.91336 18.6612C6.80936 18.0985 7.41736 17.1172 7.41736 15.9998C7.41736 14.8825 6.80936 13.9012 5.91336 13.3385C5.51069 13.0852 5.35869 12.9465 5.27336 12.8358C5.0046 12.4851 4.88614 12.0419 4.94403 11.6038C4.95736 11.4932 5.00269 11.3372 5.14403 11.0492C5.28936 10.7518 5.50136 10.3825 5.81869 9.83317C6.13603 9.28384 6.35069 8.9145 6.53469 8.63984C6.71469 8.37317 6.82669 8.25717 6.91469 8.18917C7.26546 7.92041 7.70861 7.80195 8.14669 7.85984C8.28536 7.87717 8.48003 7.93984 8.90269 8.1625C9.83603 8.65584 10.9907 8.69317 11.9587 8.13317C12.9267 7.5745 13.472 6.55717 13.512 5.50117C13.5294 5.02517 13.5734 4.82384 13.6267 4.69584C13.796 4.2865 14.12 3.9625 14.5294 3.79317Z"/>
</mask>
<path fill-rule="evenodd" clip-rule="evenodd" d="M16.4667 1.6665C15.8734 1.6665 15.3787 1.6665 14.9734 1.69317C14.559 1.71042 14.1504 1.79602 13.764 1.9465C13.319 2.13062 12.9147 2.4006 12.574 2.74102C12.2334 3.08144 11.9631 3.48563 11.7787 3.9305C11.5854 4.39717 11.5334 4.8905 11.512 5.4265C11.5099 5.62253 11.458 5.8148 11.3612 5.98529C11.2644 6.15577 11.1259 6.29887 10.9587 6.40117C10.7865 6.49517 10.5933 6.54388 10.3972 6.54271C10.201 6.54155 10.0084 6.49055 9.83736 6.3945C9.36269 6.14384 8.90936 5.9425 8.40803 5.87584C7.93062 5.81304 7.44552 5.84489 6.98042 5.96957C6.51532 6.09426 6.07934 6.30933 5.69736 6.6025C5.37439 6.86234 5.09645 7.17362 4.87469 7.52384C4.64803 7.8625 4.40003 8.2905 4.10403 8.80384L4.07069 8.8625C3.77336 9.37584 3.52669 9.80384 3.34803 10.1692C3.16136 10.5505 3.01469 10.9265 2.96136 11.3425C2.83416 12.3065 3.09506 13.2815 3.68669 14.0532C3.99469 14.4545 4.39603 14.7465 4.84936 15.0318C5.01837 15.1318 5.15919 15.273 5.25855 15.4424C5.35792 15.6117 5.41257 15.8036 5.41736 15.9998C5.41257 16.1961 5.35792 16.388 5.25855 16.5573C5.15919 16.7266 5.01837 16.8679 4.84936 16.9678C4.39603 17.2532 3.99603 17.5452 3.68669 17.9465C3.39351 18.3285 3.17844 18.7645 3.05376 19.2296C2.92908 19.6947 2.89723 20.1798 2.96003 20.6572C3.01469 21.0732 3.16003 21.4492 3.34669 21.8305C3.52669 22.1958 3.77336 22.6238 4.07069 23.1372L4.10403 23.1958C4.40003 23.7092 4.64803 24.1372 4.87469 24.4758C5.11069 24.8265 5.36403 25.1425 5.69736 25.3958C6.07924 25.6892 6.51518 25.9046 6.98028 26.0295C7.44538 26.1544 7.93053 26.1864 8.40803 26.1238C8.90936 26.0572 9.36269 25.8572 9.83736 25.6052C10.0082 25.5092 10.2006 25.4583 10.3965 25.4571C10.5924 25.456 10.7854 25.5046 10.9574 25.5985C11.1255 25.7 11.2649 25.8429 11.3622 26.0135C11.4595 26.1841 11.5116 26.3768 11.5134 26.5732C11.5334 27.1092 11.5854 27.6025 11.78 28.0692C11.9641 28.5142 12.2341 28.9185 12.5745 29.2592C12.915 29.5998 13.3191 29.8701 13.764 30.0545C14.1507 30.2145 14.5507 30.2772 14.9734 30.3052C15.3787 30.3332 15.8734 30.3332 16.4667 30.3332H16.5334C17.1267 30.3332 17.6214 30.3332 18.0267 30.3065C18.4507 30.2772 18.8494 30.2145 19.236 30.0532C19.681 29.8691 20.0854 29.5991 20.426 29.2587C20.7667 28.9182 21.0369 28.514 21.2214 28.0692C21.4147 27.6025 21.4667 27.1092 21.488 26.5732C21.4899 26.3769 21.5417 26.1844 21.6385 26.0136C21.7353 25.8429 21.8739 25.6996 22.0414 25.5972C22.2136 25.5034 22.4069 25.4549 22.6031 25.4563C22.7992 25.4577 22.9918 25.5089 23.1627 25.6052C23.6374 25.8558 24.0907 26.0572 24.592 26.1225C25.556 26.2497 26.5311 25.9888 27.3027 25.3972C27.636 25.1412 27.8894 24.8265 28.1254 24.4758C28.352 24.1372 28.6 23.7092 28.896 23.1958L28.9294 23.1372C29.2267 22.6238 29.4734 22.1958 29.652 21.8305C29.8387 21.4492 29.9854 21.0718 30.0387 20.6572C30.1659 19.6932 29.905 18.7181 29.3134 17.9465C29.0054 17.5452 28.604 17.2532 28.1507 16.9678C27.9817 16.8679 27.8409 16.7266 27.7415 16.5573C27.6421 16.388 27.5875 16.1961 27.5827 15.9998C27.5827 15.6292 27.7854 15.2612 28.1507 15.0318C28.604 14.7465 29.004 14.4545 29.3134 14.0532C29.6065 13.6712 29.8216 13.2352 29.9463 12.7701C30.071 12.305 30.1028 11.8199 30.04 11.3425C29.9766 10.9328 29.8459 10.5363 29.6534 10.1692C29.4257 9.72617 29.1843 9.2904 28.9294 8.8625L28.896 8.80384C28.6525 8.36929 28.3954 7.94241 28.1254 7.52384C27.9036 7.174 27.6257 6.86315 27.3027 6.60384C26.9208 6.31043 26.4849 6.09512 26.0198 5.9702C25.5547 5.84529 25.0695 5.81323 24.592 5.87584C24.0907 5.9425 23.6374 6.1425 23.1627 6.3945C22.9918 6.49031 22.7994 6.54118 22.6036 6.54235C22.4077 6.54351 22.2147 6.49494 22.0427 6.40117C21.875 6.29919 21.7359 6.15623 21.6387 5.98573C21.5414 5.81522 21.4891 5.62278 21.4867 5.4265C21.4667 4.8905 21.4147 4.39717 21.22 3.9305C21.0359 3.4855 20.7659 3.08113 20.4255 2.74049C20.0851 2.39984 19.6809 2.12959 19.236 1.94517C18.8494 1.78517 18.4494 1.7225 18.0267 1.6945C17.6214 1.6665 17.1267 1.6665 16.5334 1.6665H16.4667ZM14.5294 3.79317C14.632 3.7505 14.788 3.71184 15.1094 3.68917C15.4387 3.6665 15.8654 3.6665 16.5 3.6665C17.1347 3.6665 17.5614 3.6665 17.8907 3.68917C18.212 3.71184 18.368 3.7505 18.4707 3.79317C18.88 3.9625 19.204 4.2865 19.3734 4.69584C19.4267 4.82384 19.4707 5.02517 19.488 5.50117C19.528 6.55717 20.0734 7.5745 21.0414 8.13317C22.0094 8.69317 23.1627 8.65584 24.0974 8.1625C24.5187 7.93984 24.7147 7.87717 24.8534 7.85984C25.2914 7.80195 25.7346 7.92041 26.0854 8.18917C26.1734 8.25717 26.2854 8.37317 26.4654 8.63984C26.6507 8.9145 26.864 9.28384 27.1814 9.83317C27.4987 10.3825 27.7107 10.7532 27.856 11.0492C27.9987 11.3385 28.0427 11.4932 28.056 11.6038C28.1139 12.0419 27.9955 12.4851 27.7267 12.8358C27.6414 12.9465 27.4894 13.0852 27.0867 13.3385C26.1907 13.9012 25.5827 14.8825 25.5827 15.9998C25.5827 17.1172 26.1907 18.0985 27.0867 18.6612C27.4894 18.9145 27.6414 19.0532 27.7267 19.1638C27.996 19.5145 28.1134 19.9572 28.056 20.3958C28.0427 20.5065 27.9974 20.6625 27.856 20.9505C27.7107 21.2478 27.4987 21.6172 27.1814 22.1665C26.864 22.7158 26.6494 23.0852 26.4654 23.3598C26.2854 23.6265 26.1734 23.7425 26.0854 23.8105C25.7346 24.0793 25.2914 24.1977 24.8534 24.1398C24.7147 24.1225 24.52 24.0598 24.0974 23.8372C23.164 23.3438 22.0094 23.3065 21.0414 23.8652C20.0734 24.4252 19.528 25.4425 19.488 26.4985C19.4707 26.9745 19.4267 27.1758 19.3734 27.3038C19.2896 27.5062 19.1668 27.6901 19.0119 27.845C18.857 27.9999 18.6731 28.1227 18.4707 28.2065C18.368 28.2492 18.212 28.2878 17.8907 28.3105C17.5614 28.3332 17.1347 28.3332 16.5 28.3332C15.8654 28.3332 15.4387 28.3332 15.1094 28.3105C14.788 28.2878 14.632 28.2492 14.5294 28.2065C14.327 28.1227 14.1431 27.9999 13.9882 27.845C13.8333 27.6901 13.7105 27.5062 13.6267 27.3038C13.5734 27.1758 13.5294 26.9745 13.512 26.4985C13.472 25.4425 12.9267 24.4252 11.9587 23.8665C10.9907 23.3065 9.83736 23.3438 8.90269 23.8372C8.48136 24.0598 8.28536 24.1225 8.14669 24.1398C7.70861 24.1977 7.26546 24.0793 6.91469 23.8105C6.82669 23.7425 6.71469 23.6265 6.53469 23.3598C6.28391 22.9695 6.04513 22.5715 5.81869 22.1665C5.50136 21.6172 5.28936 21.2465 5.14403 20.9505C5.00136 20.6612 4.95736 20.5065 4.94403 20.3958C4.88614 19.9577 5.0046 19.5146 5.27336 19.1638C5.35869 19.0532 5.51069 18.9145 5.91336 18.6612C6.80936 18.0985 7.41736 17.1172 7.41736 15.9998C7.41736 14.8825 6.80936 13.9012 5.91336 13.3385C5.51069 13.0852 5.35869 12.9465 5.27336 12.8358C5.0046 12.4851 4.88614 12.0419 4.94403 11.6038C4.95736 11.4932 5.00269 11.3372 5.14403 11.0492C5.28936 10.7518 5.50136 10.3825 5.81869 9.83317C6.13603 9.28384 6.35069 8.9145 6.53469 8.63984C6.71469 8.37317 6.82669 8.25717 6.91469 8.18917C7.26546 7.92041 7.70861 7.80195 8.14669 7.85984C8.28536 7.87717 8.48003 7.93984 8.90269 8.1625C9.83603 8.65584 10.9907 8.69317 11.9587 8.13317C12.9267 7.5745 13.472 6.55717 13.512 5.50117C13.5294 5.02517 13.5734 4.82384 13.6267 4.69584C13.796 4.2865 14.12 3.9625 14.5294 3.79317Z" stroke="#4CA1FE" stroke-width="2" stroke-linejoin="round" mask="url(#path-2-inside-1_4007_1611)"/>
</svg>
