<svg width="32" height="32" viewBox="0 0 32 32" fill="none" xmlns="http://www.w3.org/2000/svg">
<path d="M18.9818 7.31362L18.9819 7.31352C18.7462 7.21509 18.5338 7.06858 18.358 6.88337C18.1822 6.69815 18.047 6.4783 17.961 6.23785C17.9568 6.22622 17.9529 6.21449 17.9494 6.20267C17.6622 5.25438 16.8998 4.55908 16.0005 4.55908C15.1006 4.55908 14.3371 5.25494 14.052 6.20239C14.0485 6.21405 14.0447 6.22563 14.0406 6.23711C13.9551 6.47807 13.82 6.69845 13.6442 6.88404C13.4683 7.06965 13.2555 7.21635 13.0195 7.31471L13.0085 7.31927L13.0085 7.31919C12.0606 7.69675 11.0755 8.24805 10.3226 9.20013C9.57778 10.142 9.00475 11.5466 9.00475 13.7339C9.00475 16.3162 8.72749 17.9011 8.19651 19.0993C7.76095 20.0821 7.15844 20.7754 6.54898 21.4767C6.42365 21.621 6.29803 21.7655 6.1735 21.913L6.17297 21.9136C6.08259 22.0204 6.03394 22.2418 6.1512 22.4992C6.26154 22.7414 6.45442 22.8696 6.66618 22.8696H25.3332C25.5404 22.8694 25.7342 22.7424 25.8461 22.4975C25.9646 22.2381 25.9158 22.0169 25.827 21.9115L18.9818 7.31362ZM18.9818 7.31362L18.9938 7.31837M18.9818 7.31362L18.9938 7.31837M18.9938 7.31837C19.9403 7.69483 20.9254 8.24629 21.6786 9.19881C22.4237 10.1411 22.9972 11.5462 22.9972 13.7329C22.9972 16.3152 23.2742 17.9001 23.8049 19.0982M18.9938 7.31837L23.8049 19.0982M23.8049 19.0982C24.2404 20.0814 24.8429 20.7749 25.4526 21.4764M23.8049 19.0982L25.4526 21.4764M25.4526 21.4764C25.5775 21.6202 25.7028 21.7644 25.8269 21.9114L25.4526 21.4764ZM13.0483 25.8925H18.9348C18.7852 26.3272 18.5064 26.66 18.1271 26.9078C17.6132 27.2435 16.8833 27.4401 16.0005 27.4401C15.101 27.4401 14.3628 27.2479 13.8485 26.9154C13.4683 26.6697 13.191 26.3371 13.0483 25.8925Z" stroke="#4CA1FE" stroke-width="1.5" stroke-linejoin="round"/>
</svg>
