<svg width="32" height="32" viewBox="0 0 32 32" fill="none" xmlns="http://www.w3.org/2000/svg">
<path d="M16.0001 20.0001V24.0001M29.3334 16.2721V18.3001C29.3334 23.5001 29.3334 26.1014 27.7707 27.7174C26.2094 29.3334 23.6947 29.3334 18.6667 29.3334H13.3334C8.30542 29.3334 5.79075 29.3334 4.22941 27.7174C2.66675 26.1014 2.66675 23.5014 2.66675 18.3001V16.2721C2.66675 13.2201 2.66675 11.6947 3.36008 10.4307C4.05075 9.16541 5.31608 8.38141 7.84541 6.81075L10.5121 5.15608C13.1854 3.49608 14.5227 2.66675 16.0001 2.66675C17.4774 2.66675 18.8134 3.49608 21.4881 5.15608L24.1547 6.81075C26.6841 8.38141 27.9494 9.16541 28.6414 10.4307" stroke="#4CA1FE" stroke-width="1.5" stroke-linecap="round"/>
</svg>
