<svg width="32" height="32" viewBox="0 0 32 32" fill="none" xmlns="http://www.w3.org/2000/svg">
<path d="M2.66675 15.9997C2.66675 10.9717 2.66675 8.45701 4.22941 6.89567C5.79075 5.33301 8.30541 5.33301 13.3334 5.33301H18.6667C23.6947 5.33301 26.2094 5.33301 27.7707 6.89567C29.3334 8.45701 29.3334 10.9717 29.3334 15.9997V18.6663C29.3334 23.6943 29.3334 26.209 27.7707 27.7703C26.2094 29.333 23.6947 29.333 18.6667 29.333H13.3334C8.30541 29.333 5.79075 29.333 4.22941 27.7703C2.66675 26.209 2.66675 23.6943 2.66675 18.6663V15.9997Z" stroke="#4CA1FE" stroke-opacity="0.5" stroke-width="1.5"/>
<path d="M9.3335 5.33301V3.33301M22.6668 5.33301V3.33301M3.3335 11.9997H28.6668" stroke="#4CA1FE" stroke-opacity="0.5" stroke-width="1.5" stroke-linecap="round"/>
<path d="M24 22.6664C24 23.02 23.8595 23.3592 23.6095 23.6092C23.3594 23.8593 23.0203 23.9998 22.6667 23.9998C22.313 23.9998 21.9739 23.8593 21.7239 23.6092C21.4738 23.3592 21.3333 23.02 21.3333 22.6664C21.3333 22.3128 21.4738 21.9737 21.7239 21.7236C21.9739 21.4736 22.313 21.3331 22.6667 21.3331C23.0203 21.3331 23.3594 21.4736 23.6095 21.7236C23.8595 21.9737 24 22.3128 24 22.6664ZM24 17.3331C24 17.6867 23.8595 18.0258 23.6095 18.2759C23.3594 18.5259 23.0203 18.6664 22.6667 18.6664C22.313 18.6664 21.9739 18.5259 21.7239 18.2759C21.4738 18.0258 21.3333 17.6867 21.3333 17.3331C21.3333 16.9795 21.4738 16.6403 21.7239 16.3903C21.9739 16.1402 22.313 15.9998 22.6667 15.9998C23.0203 15.9998 23.3594 16.1402 23.6095 16.3903C23.8595 16.6403 24 16.9795 24 17.3331ZM17.3333 22.6664C17.3333 23.02 17.1929 23.3592 16.9428 23.6092C16.6928 23.8593 16.3536 23.9998 16 23.9998C15.6464 23.9998 15.3072 23.8593 15.0572 23.6092C14.8071 23.3592 14.6667 23.02 14.6667 22.6664C14.6667 22.3128 14.8071 21.9737 15.0572 21.7236C15.3072 21.4736 15.6464 21.3331 16 21.3331C16.3536 21.3331 16.6928 21.4736 16.9428 21.7236C17.1929 21.9737 17.3333 22.3128 17.3333 22.6664ZM17.3333 17.3331C17.3333 17.6867 17.1929 18.0258 16.9428 18.2759C16.6928 18.5259 16.3536 18.6664 16 18.6664C15.6464 18.6664 15.3072 18.5259 15.0572 18.2759C14.8071 18.0258 14.6667 17.6867 14.6667 17.3331C14.6667 16.9795 14.8071 16.6403 15.0572 16.3903C15.3072 16.1402 15.6464 15.9998 16 15.9998C16.3536 15.9998 16.6928 16.1402 16.9428 16.3903C17.1929 16.6403 17.3333 16.9795 17.3333 17.3331ZM10.6667 22.6664C10.6667 23.02 10.5262 23.3592 10.2761 23.6092C10.0261 23.8593 9.68696 23.9998 9.33333 23.9998C8.97971 23.9998 8.64057 23.8593 8.39052 23.6092C8.14048 23.3592 8 23.02 8 22.6664C8 22.3128 8.14048 21.9737 8.39052 21.7236C8.64057 21.4736 8.97971 21.3331 9.33333 21.3331C9.68696 21.3331 10.0261 21.4736 10.2761 21.7236C10.5262 21.9737 10.6667 22.3128 10.6667 22.6664ZM10.6667 17.3331C10.6667 17.6867 10.5262 18.0258 10.2761 18.2759C10.0261 18.5259 9.68696 18.6664 9.33333 18.6664C8.97971 18.6664 8.64057 18.5259 8.39052 18.2759C8.14048 18.0258 8 17.6867 8 17.3331C8 16.9795 8.14048 16.6403 8.39052 16.3903C8.64057 16.1402 8.97971 15.9998 9.33333 15.9998C9.68696 15.9998 10.0261 16.1402 10.2761 16.3903C10.5262 16.6403 10.6667 16.9795 10.6667 17.3331Z" fill="#4CA1FE" fill-opacity="0.5"/>
</svg>
