<svg width="32" height="32" viewBox="0 0 32 32" fill="none" xmlns="http://www.w3.org/2000/svg">
<path d="M16.0001 19.9998V23.9998M29.3334 16.2718V18.2998C29.3334 23.4998 29.3334 26.1012 27.7707 27.7172C26.2094 29.3332 23.6947 29.3332 18.6667 29.3332H13.3334C8.30542 29.3332 5.79075 29.3332 4.22941 27.7172C2.66675 26.1012 2.66675 23.5012 2.66675 18.2998V16.2718C2.66675 13.2198 2.66675 11.6945 3.36008 10.4305C4.05075 9.16517 5.31608 8.38117 7.84541 6.8105L10.5121 5.15584C13.1854 3.49584 14.5227 2.6665 16.0001 2.6665C17.4774 2.6665 18.8134 3.49584 21.4881 5.15584L24.1547 6.8105C26.6841 8.38117 27.9494 9.16517 28.6414 10.4305" stroke="#4CA1FE" stroke-opacity="0.5" stroke-width="1.5" stroke-linecap="round"/>
</svg>
