<svg width="32" height="32" viewBox="0 0 32 32" fill="none" xmlns="http://www.w3.org/2000/svg">
<path d="M18.9818 7.31386L18.9819 7.31376C18.7462 7.21533 18.5338 7.06883 18.358 6.88361C18.1822 6.6984 18.047 6.47854 17.961 6.2381C17.9568 6.22647 17.9529 6.21474 17.9494 6.20291C17.6622 5.25463 16.8998 4.55933 16.0005 4.55933C15.1006 4.55933 14.3371 5.25518 14.052 6.20263C14.0485 6.21429 14.0447 6.22587 14.0406 6.23735C13.9551 6.47831 13.82 6.69869 13.6442 6.88429C13.4683 7.06989 13.2555 7.21659 13.0195 7.31495L13.0085 7.31952L13.0085 7.31943C12.0606 7.69699 11.0755 8.24829 10.3226 9.20038C9.57778 10.1422 9.00475 11.5468 9.00475 13.7341C9.00475 16.3165 8.72749 17.9014 8.19651 19.0995C7.76095 20.0824 7.15844 20.7757 6.54898 21.477C6.42365 21.6212 6.29803 21.7657 6.1735 21.9132L6.17297 21.9139C6.08259 22.0207 6.03394 22.242 6.1512 22.4994C6.26154 22.7417 6.45442 22.8699 6.66618 22.8699H25.3332C25.5404 22.8697 25.7342 22.7426 25.8461 22.4978C25.9646 22.2384 25.9158 22.0172 25.827 21.9117L18.9818 7.31386ZM18.9818 7.31386L18.9938 7.31861M18.9818 7.31386L18.9938 7.31861M18.9938 7.31861C19.9403 7.69507 20.9254 8.24654 21.6786 9.19905C22.4237 10.1413 22.9972 11.5465 22.9972 13.7332C22.9972 16.3155 23.2742 17.9003 23.8049 19.0985M18.9938 7.31861L23.8049 19.0985M23.8049 19.0985C24.2404 20.0817 24.8429 20.7751 25.4526 21.4767M23.8049 19.0985L25.4526 21.4767M25.4526 21.4767C25.5775 21.6205 25.7028 21.7646 25.8269 21.9116L25.4526 21.4767ZM13.0483 25.8927H18.9348C18.7852 26.3274 18.5064 26.6602 18.1271 26.908C17.6132 27.2438 16.8833 27.4403 16.0005 27.4403C15.101 27.4403 14.3628 27.2481 13.8485 26.9157C13.4683 26.6699 13.191 26.3373 13.0483 25.8927Z" stroke="#4CA1FE" stroke-opacity="0.5" stroke-width="1.5" stroke-linejoin="round"/>
</svg>
