<svg width="33" height="32" viewBox="0 0 33 32" fill="none" xmlns="http://www.w3.org/2000/svg">
<path d="M13.318 12.8183C14.1619 11.9743 15.3065 11.5002 16.5 11.5002C17.6935 11.5002 18.8381 11.9743 19.682 12.8183C20.5259 13.6622 21 14.8068 21 16.0002C21 17.1937 20.5259 18.3383 19.682 19.1822C18.8381 20.0261 17.6935 20.5002 16.5 20.5002C15.3065 20.5002 14.1619 20.0261 13.318 19.1822C12.4741 18.3383 12 17.1937 12 16.0002C12 14.8068 12.4741 13.6622 13.318 12.8183ZM14.0251 13.5254C13.3687 14.1817 13 15.072 13 16.0002C13 16.9285 13.3687 17.8187 14.0251 18.4751C14.6815 19.1315 15.5717 19.5002 16.5 19.5002C17.4283 19.5002 18.3185 19.1315 18.9749 18.4751C19.6313 17.8187 20 16.9285 20 16.0002C20 15.072 19.6313 14.1817 18.9749 13.5254C18.3185 12.869 17.4283 12.5002 16.5 12.5002C15.5717 12.5002 14.6815 12.869 14.0251 13.5254Z" stroke="#4CA1FE" stroke-opacity="0.5" stroke-linejoin="round"/>
<mask id="path-2-inside-1_4007_299" fill="white">
<path fill-rule="evenodd" clip-rule="evenodd" d="M16.4667 1.66675C15.8734 1.66675 15.3787 1.66675 14.9734 1.69341C14.559 1.71067 14.1504 1.79627 13.764 1.94675C13.319 2.13087 12.9147 2.40085 12.574 2.74126C12.2334 3.08168 11.9631 3.48587 11.7787 3.93075C11.5854 4.39741 11.5334 4.89075 11.512 5.42675C11.5099 5.62278 11.458 5.81505 11.3612 5.98553C11.2644 6.15601 11.1259 6.29912 10.9587 6.40141C10.7865 6.49542 10.5933 6.54412 10.3972 6.54296C10.201 6.54179 10.0084 6.49079 9.83736 6.39475C9.36269 6.14408 8.90936 5.94275 8.40803 5.87608C7.93062 5.81328 7.44552 5.84514 6.98042 5.96982C6.51532 6.0945 6.07934 6.30957 5.69736 6.60275C5.37439 6.86259 5.09645 7.17387 4.87469 7.52408C4.64803 7.86275 4.40003 8.29075 4.10403 8.80408L4.07069 8.86275C3.77336 9.37608 3.52669 9.80408 3.34803 10.1694C3.16136 10.5507 3.01469 10.9267 2.96136 11.3427C2.83416 12.3067 3.09506 13.2818 3.68669 14.0534C3.99469 14.4547 4.39603 14.7467 4.84936 15.0321C5.01837 15.132 5.15919 15.2733 5.25855 15.4426C5.35792 15.612 5.41257 15.8038 5.41736 16.0001C5.41257 16.1964 5.35792 16.3882 5.25855 16.5575C5.15919 16.7269 5.01837 16.8682 4.84936 16.9681C4.39603 17.2534 3.99603 17.5454 3.68669 17.9467C3.39351 18.3287 3.17844 18.7647 3.05376 19.2298C2.92908 19.6949 2.89723 20.18 2.96003 20.6574C3.01469 21.0734 3.16003 21.4494 3.34669 21.8307C3.52669 22.1961 3.77336 22.6241 4.07069 23.1374L4.10403 23.1961C4.40003 23.7094 4.64803 24.1374 4.87469 24.4761C5.11069 24.8267 5.36403 25.1427 5.69736 25.3961C6.07924 25.6895 6.51518 25.9048 6.98028 26.0297C7.44538 26.1546 7.93053 26.1867 8.40803 26.1241C8.90936 26.0574 9.36269 25.8574 9.83736 25.6054C10.0082 25.5095 10.2006 25.4585 10.3965 25.4574C10.5924 25.4562 10.7854 25.5049 10.9574 25.5987C11.1255 25.7002 11.2649 25.8431 11.3622 26.0137C11.4595 26.1843 11.5116 26.377 11.5134 26.5734C11.5334 27.1094 11.5854 27.6027 11.78 28.0694C11.9641 28.5144 12.2341 28.9188 12.5745 29.2594C12.915 29.6001 13.3191 29.8703 13.764 30.0547C14.1507 30.2147 14.5507 30.2774 14.9734 30.3054C15.3787 30.3334 15.8734 30.3334 16.4667 30.3334H16.5334C17.1267 30.3334 17.6214 30.3334 18.0267 30.3067C18.4507 30.2774 18.8494 30.2147 19.236 30.0534C19.681 29.8693 20.0854 29.5993 20.426 29.2589C20.7667 28.9185 21.0369 28.5143 21.2214 28.0694C21.4147 27.6027 21.4667 27.1094 21.488 26.5734C21.4899 26.3772 21.5417 26.1846 21.6385 26.0139C21.7353 25.8431 21.8739 25.6998 22.0414 25.5974C22.2136 25.5036 22.4069 25.4551 22.6031 25.4565C22.7992 25.4579 22.9918 25.5092 23.1627 25.6054C23.6374 25.8561 24.0907 26.0574 24.592 26.1227C25.556 26.2499 26.5311 25.989 27.3027 25.3974C27.636 25.1414 27.8894 24.8267 28.1254 24.4761C28.352 24.1374 28.6 23.7094 28.896 23.1961L28.9294 23.1374C29.2267 22.6241 29.4734 22.1961 29.652 21.8307C29.8387 21.4494 29.9854 21.0721 30.0387 20.6574C30.1659 19.6934 29.905 18.7184 29.3134 17.9467C29.0054 17.5454 28.604 17.2534 28.1507 16.9681C27.9817 16.8682 27.8409 16.7269 27.7415 16.5575C27.6421 16.3882 27.5875 16.1964 27.5827 16.0001C27.5827 15.6294 27.7854 15.2614 28.1507 15.0321C28.604 14.7467 29.004 14.4547 29.3134 14.0534C29.6065 13.6714 29.8216 13.2355 29.9463 12.7704C30.071 12.3053 30.1028 11.8202 30.04 11.3427C29.9766 10.933 29.8459 10.5366 29.6534 10.1694C29.4257 9.72641 29.1843 9.29064 28.9294 8.86275L28.896 8.80408C28.6525 8.36953 28.3954 7.94266 28.1254 7.52408C27.9036 7.17424 27.6257 6.8634 27.3027 6.60408C26.9208 6.31067 26.4849 6.09536 26.0198 5.97045C25.5547 5.84554 25.0695 5.81347 24.592 5.87608C24.0907 5.94275 23.6374 6.14275 23.1627 6.39475C22.9918 6.49055 22.7994 6.54142 22.6036 6.54259C22.4077 6.54376 22.2147 6.49518 22.0427 6.40141C21.875 6.29944 21.7359 6.15648 21.6387 5.98597C21.5414 5.81547 21.4891 5.62303 21.4867 5.42675C21.4667 4.89075 21.4147 4.39741 21.22 3.93075C21.0359 3.48575 20.7659 3.08138 20.4255 2.74073C20.0851 2.40008 19.6809 2.12983 19.236 1.94541C18.8494 1.78541 18.4494 1.72275 18.0267 1.69475C17.6214 1.66675 17.1267 1.66675 16.5334 1.66675H16.4667ZM14.5294 3.79341C14.632 3.75075 14.788 3.71208 15.1094 3.68941C15.4387 3.66675 15.8654 3.66675 16.5 3.66675C17.1347 3.66675 17.5614 3.66675 17.8907 3.68941C18.212 3.71208 18.368 3.75075 18.4707 3.79341C18.88 3.96275 19.204 4.28675 19.3734 4.69608C19.4267 4.82408 19.4707 5.02541 19.488 5.50141C19.528 6.55741 20.0734 7.57475 21.0414 8.13341C22.0094 8.69341 23.1627 8.65608 24.0974 8.16275C24.5187 7.94008 24.7147 7.87741 24.8534 7.86008C25.2914 7.80219 25.7346 7.92065 26.0854 8.18941C26.1734 8.25741 26.2854 8.37341 26.4654 8.64008C26.6507 8.91475 26.864 9.28408 27.1814 9.83341C27.4987 10.3827 27.7107 10.7534 27.856 11.0494C27.9987 11.3387 28.0427 11.4934 28.056 11.6041C28.1139 12.0422 27.9955 12.4853 27.7267 12.8361C27.6414 12.9467 27.4894 13.0854 27.0867 13.3387C26.1907 13.9014 25.5827 14.8827 25.5827 16.0001C25.5827 17.1174 26.1907 18.0987 27.0867 18.6614C27.4894 18.9147 27.6414 19.0534 27.7267 19.1641C27.996 19.5147 28.1134 19.9574 28.056 20.3961C28.0427 20.5067 27.9974 20.6627 27.856 20.9507C27.7107 21.2481 27.4987 21.6174 27.1814 22.1667C26.864 22.7161 26.6494 23.0854 26.4654 23.3601C26.2854 23.6267 26.1734 23.7427 26.0854 23.8107C25.7346 24.0795 25.2914 24.198 24.8534 24.1401C24.7147 24.1227 24.52 24.0601 24.0974 23.8374C23.164 23.3441 22.0094 23.3067 21.0414 23.8654C20.0734 24.4254 19.528 25.4427 19.488 26.4987C19.4707 26.9747 19.4267 27.1761 19.3734 27.3041C19.2896 27.5065 19.1668 27.6904 19.0119 27.8453C18.857 28.0001 18.6731 28.123 18.4707 28.2067C18.368 28.2494 18.212 28.2881 17.8907 28.3107C17.5614 28.3334 17.1347 28.3334 16.5 28.3334C15.8654 28.3334 15.4387 28.3334 15.1094 28.3107C14.788 28.2881 14.632 28.2494 14.5294 28.2067C14.327 28.123 14.1431 28.0001 13.9882 27.8453C13.8333 27.6904 13.7105 27.5065 13.6267 27.3041C13.5734 27.1761 13.5294 26.9747 13.512 26.4987C13.472 25.4427 12.9267 24.4254 11.9587 23.8667C10.9907 23.3067 9.83736 23.3441 8.90269 23.8374C8.48136 24.0601 8.28536 24.1227 8.14669 24.1401C7.70861 24.198 7.26546 24.0795 6.91469 23.8107C6.82669 23.7427 6.71469 23.6267 6.53469 23.3601C6.28391 22.9697 6.04513 22.5717 5.81869 22.1667C5.50136 21.6174 5.28936 21.2467 5.14403 20.9507C5.00136 20.6614 4.95736 20.5067 4.94403 20.3961C4.88614 19.958 5.0046 19.5148 5.27336 19.1641C5.35869 19.0534 5.51069 18.9147 5.91336 18.6614C6.80936 18.0987 7.41736 17.1174 7.41736 16.0001C7.41736 14.8827 6.80936 13.9014 5.91336 13.3387C5.51069 13.0854 5.35869 12.9467 5.27336 12.8361C5.0046 12.4853 4.88614 12.0422 4.94403 11.6041C4.95736 11.4934 5.00269 11.3374 5.14403 11.0494C5.28936 10.7521 5.50136 10.3827 5.81869 9.83341C6.13603 9.28408 6.35069 8.91475 6.53469 8.64008C6.71469 8.37341 6.82669 8.25741 6.91469 8.18941C7.26546 7.92065 7.70861 7.80219 8.14669 7.86008C8.28536 7.87741 8.48003 7.94008 8.90269 8.16275C9.83603 8.65608 10.9907 8.69341 11.9587 8.13341C12.9267 7.57475 13.472 6.55741 13.512 5.50141C13.5294 5.02541 13.5734 4.82408 13.6267 4.69608C13.796 4.28675 14.12 3.96275 14.5294 3.79341Z"/>
</mask>
<path fill-rule="evenodd" clip-rule="evenodd" d="M16.4667 1.66675C15.8734 1.66675 15.3787 1.66675 14.9734 1.69341C14.559 1.71067 14.1504 1.79627 13.764 1.94675C13.319 2.13087 12.9147 2.40085 12.574 2.74126C12.2334 3.08168 11.9631 3.48587 11.7787 3.93075C11.5854 4.39741 11.5334 4.89075 11.512 5.42675C11.5099 5.62278 11.458 5.81505 11.3612 5.98553C11.2644 6.15601 11.1259 6.29912 10.9587 6.40141C10.7865 6.49542 10.5933 6.54412 10.3972 6.54296C10.201 6.54179 10.0084 6.49079 9.83736 6.39475C9.36269 6.14408 8.90936 5.94275 8.40803 5.87608C7.93062 5.81328 7.44552 5.84514 6.98042 5.96982C6.51532 6.0945 6.07934 6.30957 5.69736 6.60275C5.37439 6.86259 5.09645 7.17387 4.87469 7.52408C4.64803 7.86275 4.40003 8.29075 4.10403 8.80408L4.07069 8.86275C3.77336 9.37608 3.52669 9.80408 3.34803 10.1694C3.16136 10.5507 3.01469 10.9267 2.96136 11.3427C2.83416 12.3067 3.09506 13.2818 3.68669 14.0534C3.99469 14.4547 4.39603 14.7467 4.84936 15.0321C5.01837 15.132 5.15919 15.2733 5.25855 15.4426C5.35792 15.612 5.41257 15.8038 5.41736 16.0001C5.41257 16.1964 5.35792 16.3882 5.25855 16.5575C5.15919 16.7269 5.01837 16.8682 4.84936 16.9681C4.39603 17.2534 3.99603 17.5454 3.68669 17.9467C3.39351 18.3287 3.17844 18.7647 3.05376 19.2298C2.92908 19.6949 2.89723 20.18 2.96003 20.6574C3.01469 21.0734 3.16003 21.4494 3.34669 21.8307C3.52669 22.1961 3.77336 22.6241 4.07069 23.1374L4.10403 23.1961C4.40003 23.7094 4.64803 24.1374 4.87469 24.4761C5.11069 24.8267 5.36403 25.1427 5.69736 25.3961C6.07924 25.6895 6.51518 25.9048 6.98028 26.0297C7.44538 26.1546 7.93053 26.1867 8.40803 26.1241C8.90936 26.0574 9.36269 25.8574 9.83736 25.6054C10.0082 25.5095 10.2006 25.4585 10.3965 25.4574C10.5924 25.4562 10.7854 25.5049 10.9574 25.5987C11.1255 25.7002 11.2649 25.8431 11.3622 26.0137C11.4595 26.1843 11.5116 26.377 11.5134 26.5734C11.5334 27.1094 11.5854 27.6027 11.78 28.0694C11.9641 28.5144 12.2341 28.9188 12.5745 29.2594C12.915 29.6001 13.3191 29.8703 13.764 30.0547C14.1507 30.2147 14.5507 30.2774 14.9734 30.3054C15.3787 30.3334 15.8734 30.3334 16.4667 30.3334H16.5334C17.1267 30.3334 17.6214 30.3334 18.0267 30.3067C18.4507 30.2774 18.8494 30.2147 19.236 30.0534C19.681 29.8693 20.0854 29.5993 20.426 29.2589C20.7667 28.9185 21.0369 28.5143 21.2214 28.0694C21.4147 27.6027 21.4667 27.1094 21.488 26.5734C21.4899 26.3772 21.5417 26.1846 21.6385 26.0139C21.7353 25.8431 21.8739 25.6998 22.0414 25.5974C22.2136 25.5036 22.4069 25.4551 22.6031 25.4565C22.7992 25.4579 22.9918 25.5092 23.1627 25.6054C23.6374 25.8561 24.0907 26.0574 24.592 26.1227C25.556 26.2499 26.5311 25.989 27.3027 25.3974C27.636 25.1414 27.8894 24.8267 28.1254 24.4761C28.352 24.1374 28.6 23.7094 28.896 23.1961L28.9294 23.1374C29.2267 22.6241 29.4734 22.1961 29.652 21.8307C29.8387 21.4494 29.9854 21.0721 30.0387 20.6574C30.1659 19.6934 29.905 18.7184 29.3134 17.9467C29.0054 17.5454 28.604 17.2534 28.1507 16.9681C27.9817 16.8682 27.8409 16.7269 27.7415 16.5575C27.6421 16.3882 27.5875 16.1964 27.5827 16.0001C27.5827 15.6294 27.7854 15.2614 28.1507 15.0321C28.604 14.7467 29.004 14.4547 29.3134 14.0534C29.6065 13.6714 29.8216 13.2355 29.9463 12.7704C30.071 12.3053 30.1028 11.8202 30.04 11.3427C29.9766 10.933 29.8459 10.5366 29.6534 10.1694C29.4257 9.72641 29.1843 9.29064 28.9294 8.86275L28.896 8.80408C28.6525 8.36953 28.3954 7.94266 28.1254 7.52408C27.9036 7.17424 27.6257 6.8634 27.3027 6.60408C26.9208 6.31067 26.4849 6.09536 26.0198 5.97045C25.5547 5.84554 25.0695 5.81347 24.592 5.87608C24.0907 5.94275 23.6374 6.14275 23.1627 6.39475C22.9918 6.49055 22.7994 6.54142 22.6036 6.54259C22.4077 6.54376 22.2147 6.49518 22.0427 6.40141C21.875 6.29944 21.7359 6.15648 21.6387 5.98597C21.5414 5.81547 21.4891 5.62303 21.4867 5.42675C21.4667 4.89075 21.4147 4.39741 21.22 3.93075C21.0359 3.48575 20.7659 3.08138 20.4255 2.74073C20.0851 2.40008 19.6809 2.12983 19.236 1.94541C18.8494 1.78541 18.4494 1.72275 18.0267 1.69475C17.6214 1.66675 17.1267 1.66675 16.5334 1.66675H16.4667ZM14.5294 3.79341C14.632 3.75075 14.788 3.71208 15.1094 3.68941C15.4387 3.66675 15.8654 3.66675 16.5 3.66675C17.1347 3.66675 17.5614 3.66675 17.8907 3.68941C18.212 3.71208 18.368 3.75075 18.4707 3.79341C18.88 3.96275 19.204 4.28675 19.3734 4.69608C19.4267 4.82408 19.4707 5.02541 19.488 5.50141C19.528 6.55741 20.0734 7.57475 21.0414 8.13341C22.0094 8.69341 23.1627 8.65608 24.0974 8.16275C24.5187 7.94008 24.7147 7.87741 24.8534 7.86008C25.2914 7.80219 25.7346 7.92065 26.0854 8.18941C26.1734 8.25741 26.2854 8.37341 26.4654 8.64008C26.6507 8.91475 26.864 9.28408 27.1814 9.83341C27.4987 10.3827 27.7107 10.7534 27.856 11.0494C27.9987 11.3387 28.0427 11.4934 28.056 11.6041C28.1139 12.0422 27.9955 12.4853 27.7267 12.8361C27.6414 12.9467 27.4894 13.0854 27.0867 13.3387C26.1907 13.9014 25.5827 14.8827 25.5827 16.0001C25.5827 17.1174 26.1907 18.0987 27.0867 18.6614C27.4894 18.9147 27.6414 19.0534 27.7267 19.1641C27.996 19.5147 28.1134 19.9574 28.056 20.3961C28.0427 20.5067 27.9974 20.6627 27.856 20.9507C27.7107 21.2481 27.4987 21.6174 27.1814 22.1667C26.864 22.7161 26.6494 23.0854 26.4654 23.3601C26.2854 23.6267 26.1734 23.7427 26.0854 23.8107C25.7346 24.0795 25.2914 24.198 24.8534 24.1401C24.7147 24.1227 24.52 24.0601 24.0974 23.8374C23.164 23.3441 22.0094 23.3067 21.0414 23.8654C20.0734 24.4254 19.528 25.4427 19.488 26.4987C19.4707 26.9747 19.4267 27.1761 19.3734 27.3041C19.2896 27.5065 19.1668 27.6904 19.0119 27.8453C18.857 28.0001 18.6731 28.123 18.4707 28.2067C18.368 28.2494 18.212 28.2881 17.8907 28.3107C17.5614 28.3334 17.1347 28.3334 16.5 28.3334C15.8654 28.3334 15.4387 28.3334 15.1094 28.3107C14.788 28.2881 14.632 28.2494 14.5294 28.2067C14.327 28.123 14.1431 28.0001 13.9882 27.8453C13.8333 27.6904 13.7105 27.5065 13.6267 27.3041C13.5734 27.1761 13.5294 26.9747 13.512 26.4987C13.472 25.4427 12.9267 24.4254 11.9587 23.8667C10.9907 23.3067 9.83736 23.3441 8.90269 23.8374C8.48136 24.0601 8.28536 24.1227 8.14669 24.1401C7.70861 24.198 7.26546 24.0795 6.91469 23.8107C6.82669 23.7427 6.71469 23.6267 6.53469 23.3601C6.28391 22.9697 6.04513 22.5717 5.81869 22.1667C5.50136 21.6174 5.28936 21.2467 5.14403 20.9507C5.00136 20.6614 4.95736 20.5067 4.94403 20.3961C4.88614 19.958 5.0046 19.5148 5.27336 19.1641C5.35869 19.0534 5.51069 18.9147 5.91336 18.6614C6.80936 18.0987 7.41736 17.1174 7.41736 16.0001C7.41736 14.8827 6.80936 13.9014 5.91336 13.3387C5.51069 13.0854 5.35869 12.9467 5.27336 12.8361C5.0046 12.4853 4.88614 12.0422 4.94403 11.6041C4.95736 11.4934 5.00269 11.3374 5.14403 11.0494C5.28936 10.7521 5.50136 10.3827 5.81869 9.83341C6.13603 9.28408 6.35069 8.91475 6.53469 8.64008C6.71469 8.37341 6.82669 8.25741 6.91469 8.18941C7.26546 7.92065 7.70861 7.80219 8.14669 7.86008C8.28536 7.87741 8.48003 7.94008 8.90269 8.16275C9.83603 8.65608 10.9907 8.69341 11.9587 8.13341C12.9267 7.57475 13.472 6.55741 13.512 5.50141C13.5294 5.02541 13.5734 4.82408 13.6267 4.69608C13.796 4.28675 14.12 3.96275 14.5294 3.79341Z" stroke="#4CA1FE" stroke-opacity="0.5" stroke-width="2" stroke-linejoin="round" mask="url(#path-2-inside-1_4007_299)"/>
</svg>
